<svg xmlns:svg="http://www.w3.org/2000/svg" xmlns="http://www.w3.org/2000/svg" version="1.0" width="602.36218" height="283.60629" id="svg2867">
  <defs id="defs2869"/>
  <g transform="translate(-66.53543,-408.27161)" id="layer1">
    <g transform="translate(17.716519,17.712576)" id="g2879">
      <path d="M 186.25959,431.79389 C 186.05113,434.89826 183.42002,435.03911 180.62552,435.03348 L 127.24262,434.89263 C 124.44812,434.88699 121.87335,435.03911 121.04514,431.93474 L 118.65065,431.93474 C 118.65065,434.93206 118.35767,437.77169 117.94639,440.66756 C 117.63089,443.67053 117.09564,446.64528 116.67873,449.54123 L 119.77747,449.54123 C 121.33248,441.99156 121.74376,440.09851 129.49625,440.10415 L 146.39849,440.10415 L 146.39849,495.31811 C 146.39286,503.48753 143.4913,504.05661 137.80652,504.05094 L 135.83459,504.05094 L 135.83459,507.14968 C 139.87423,507.14968 147.09712,506.72149 153.30023,506.72713 C 158.88361,506.73276 166.02762,507.14405 170.06162,507.14968 L 170.06162,504.05094 L 168.23054,504.05094 C 163.26128,504.05094 159.62731,503.1439 159.63857,495.17726 L 159.63857,440.10415 L 176.54081,440.10415 C 183.46509,440.11541 184.08484,446.27915 184.28767,450.10464 L 187.38641,448.97783 C 187.39204,446.18895 187.31879,443.31563 187.52726,440.5267 C 187.84277,437.7322 188.23716,435.01099 188.65408,432.21644 L 186.25959,431.79389 z M 215.69766,432.49814 C 215.39342,432.49814 215.16242,432.53199 214.85254,432.639 C 212.88624,433.87849 208.72267,436.00823 205.41546,437.14626 C 204.79008,440.9718 202.95901,446.13829 201.61246,449.96379 L 184.99193,497.29004 C 183.43692,501.63391 180.00576,504.05094 175.97741,504.05094 L 175.41399,504.05094 L 175.41399,507.14968 C 179.13812,506.94685 182.81717,506.72149 186.54129,506.72713 C 190.67671,506.72713 194.93607,506.94123 199.07712,507.14968 L 199.07712,504.05094 L 197.95031,504.05094 C 194.54169,504.05094 190.20344,503.62843 190.20344,500.52964 C 190.20344,498.66476 191.42042,495.87589 192.45708,492.36023 L 195.83753,481.65548 L 219.21896,481.65548 L 223.30366,493.62789 C 224.43611,496.94073 225.41643,499.7465 225.41644,501.09305 C 225.41644,503.67345 221.30919,504.05089 218.93724,504.05094 L 217.81043,504.05094 L 217.81043,507.14968 C 223.08957,506.94685 228.23911,506.86234 233.30414,506.86798 C 238.26777,506.87361 242.87643,507.07644 247.53019,507.29054 L 247.53019,504.19179 L 246.96678,504.19179 C 243.55253,504.18615 241.44538,502.86215 240.20589,499.96623 C 238.86498,496.86185 237.50154,493.02505 236.26204,489.40234 L 217.38788,435.31519 C 217.07801,434.48698 216.71179,433.61369 216.40192,432.77985 C 216.19908,432.46998 216.00752,432.49819 215.69766,432.49814 z M 449.08934,432.639 C 448.78511,432.639 448.55411,432.67844 448.24423,432.77985 C 446.28357,434.01935 442.11436,436.14903 438.80716,437.28711 C 438.18741,441.11265 436.35069,446.2791 435.00414,450.10464 L 418.38362,497.57175 C 416.82862,501.91563 413.40309,504.33264 409.36909,504.33264 L 408.80568,504.33264 L 408.80568,507.43139 C 412.52981,507.22856 416.21449,507.00324 419.93299,507.00883 C 424.06841,507.00883 428.33903,507.22298 432.46882,507.43139 L 432.46882,504.33264 L 431.34199,504.33264 C 427.92774,504.33264 423.58951,503.76924 423.59514,500.67049 C 423.59514,498.80561 424.80647,496.15755 425.84877,492.64193 L 429.22922,481.79633 L 452.61064,481.93718 L 456.69536,493.9096 C 457.82781,497.22244 458.81377,500.0282 458.80813,501.37475 C 458.80813,503.95516 454.71216,504.33264 452.32894,504.33264 L 451.20212,504.33264 L 451.20212,507.43139 C 456.47562,507.22856 461.63081,507.0032 466.69584,507.00883 C 471.65947,507.01446 476.40899,507.21729 481.06274,507.43139 L 481.06274,504.33264 L 480.35848,504.33264 C 476.94987,504.32701 474.83708,503.14385 473.59758,500.24794 C 472.25668,497.14356 471.03408,493.3067 469.79458,489.68404 L 450.77957,435.59689 C 450.46969,434.76868 450.10348,433.74895 449.79361,432.9207 C 449.59078,432.60519 449.39922,432.639 449.08934,432.639 z M 93.297302,433.34325 C 79.955805,433.33199 70.490557,441.3098 70.479285,454.75275 C 70.456749,479.67791 100.91458,474.0551 100.90331,492.36023 C 100.89767,499.70143 95.117114,504.0622 88.08578,504.05094 C 78.259947,504.0453 73.397734,496.36601 72.169509,487.57126 L 69.211617,488.27551 C 69.724319,493.54901 70.389135,498.631 70.901841,503.91009 C 75.966877,506.49613 81.589682,508.69341 87.38152,508.69905 C 100.61597,508.71033 112.4419,501.27898 112.45317,487.00785 C 112.4757,462.18974 81.44884,467.27173 81.465737,450.10464 C 81.471371,441.93523 85.973005,437.13499 94.142414,437.14626 C 101.28079,437.15189 105.681,443.52399 106.39653,450.24549 L 109.21357,449.68209 C 108.59946,444.71283 108.22198,439.7492 108.22761,434.89263 C 105.02182,434.4757 96.193219,433.34325 93.297302,433.34325 z M 251.75576,435.03348 L 251.75576,438.13223 L 253.16427,438.13223 C 257.81802,438.13223 262.46614,441.63661 262.46051,447.42845 L 262.46051,490.9517 C 262.45487,499.22254 260.29702,504.19738 253.16427,504.19179 L 251.75576,504.19179 L 251.75576,507.29054 C 256.40951,507.29616 261.18719,506.86798 265.84094,506.86798 C 270.28623,506.87361 274.63574,507.2849 279.08103,507.29054 L 279.08103,504.19179 L 277.39081,504.19179 C 269.42986,504.18615 267.66641,501.08178 267.67202,492.07853 L 267.67202,449.40038 L 320.91407,508.8399 L 324.85792,508.8399 C 324.34522,505.63411 324.14803,502.03958 324.15366,498.41686 L 324.29451,451.3723 C 324.30578,439.06748 329.10602,438.27313 333.44989,438.27308 L 334.99926,438.27308 L 334.99926,435.17433 C 330.75679,435.1687 326.56506,435.59689 322.32258,435.59689 C 317.46037,435.59125 312.67702,435.03348 307.81483,435.03348 L 307.81483,438.27308 L 310.06847,438.27308 C 313.17284,438.27308 319.08862,439.50689 319.08299,447.99186 L 319.08299,486.72615 L 318.80128,486.867 L 272.88354,435.03348 C 269.77917,435.03348 266.83253,435.46163 263.72817,435.45604 C 259.79558,435.4504 255.68836,435.03344 251.75576,435.03348 z M 339.50652,435.17433 L 339.50652,438.27308 L 340.91504,438.27308 C 344.63917,438.27871 348.52667,438.80826 348.52104,444.18885 L 348.52104,498.27601 C 348.51542,503.65655 344.63918,504.19184 340.91504,504.19179 L 339.36567,504.19179 L 339.36567,507.29054 C 342.05313,507.29054 349.37743,506.86234 356.40876,506.86798 C 363.44009,506.87361 370.73057,507.07644 375.28292,507.29054 C 396.27549,508.54694 413.71861,491.77428 413.73551,471.09158 C 413.75241,449.47363 398.05023,435.19686 372.60673,435.17433 C 368.16144,435.1687 362.60624,435.6082 355.98621,435.59689 C 349.36616,435.59125 342.60526,435.18001 339.50652,435.17433 z M 484.72489,435.31519 L 484.72489,438.41393 L 486.69682,438.41393 C 489.90824,438.41393 494.02676,438.75201 494.02112,446.30164 L 493.88027,498.83941 C 493.87463,502.66495 490.38151,504.33264 486.55597,504.33264 L 484.72489,504.33264 L 484.72489,507.43139 C 489.89697,507.43701 494.69158,507.0032 499.65519,507.00883 C 505.54844,507.01446 511.64456,507.43139 517.54339,507.43139 L 517.54339,504.33264 L 515.57147,504.33264 C 510.81631,504.32701 507.11472,503.98901 507.12036,496.02238 L 507.12036,473.90863 L 514.02209,473.90863 C 520.73228,485.80216 527.47628,496.98013 535.43159,507.43139 C 538.63738,507.43701 541.94459,507.14405 545.15038,507.14968 C 548.57027,507.14968 551.87747,507.5666 555.29172,507.57224 L 555.29172,504.47349 C 550.22106,503.84811 548.18719,502.48463 545.29123,498.13515 L 527.68474,471.65499 C 535.85978,468.45483 542.04037,462.79821 542.05163,453.48509 C 542.06291,438.80268 530.43417,435.32645 517.40254,435.31519 C 511.92058,435.30955 506.98513,435.74338 500.78202,435.73774 C 494.47184,435.7321 488.03209,435.31519 484.72489,435.31519 z M 559.23558,435.31519 L 559.23558,438.41393 L 560.64409,438.41393 C 564.36822,438.41393 568.39658,438.9548 568.39096,444.32971 L 568.25011,498.55771 C 568.24447,503.93825 564.36822,504.47909 560.64409,504.47349 L 559.23558,504.47349 L 559.23558,507.57224 C 561.92867,507.57224 569.24729,507.14405 576.27867,507.14968 C 583.31563,507.15531 590.45964,507.36378 595.01197,507.57224 C 616.00454,508.83428 633.44202,491.92076 633.46456,471.23244 C 633.48146,449.62011 617.92009,435.33773 592.47664,435.31519 C 588.03136,435.31519 582.47052,435.74333 575.85611,435.73774 C 569.23607,435.7321 562.33996,435.31514 559.23558,435.31519 z M 368.80373,438.83649 C 385.35102,438.84775 399.25029,445.76076 399.22776,473.06351 C 399.21086,488.99105 390.04984,503.64529 372.46588,503.62839 C 365.01763,503.62275 361.75549,502.69313 361.76113,495.45896 L 361.76113,439.39989 C 364.03729,439.19706 366.42614,438.83085 368.80373,438.83649 z M 513.17698,438.97734 C 522.37743,438.98296 528.25937,444.98894 528.24814,454.18935 C 528.23688,466.39839 522.52956,470.25769 512.19102,470.24646 L 507.12036,470.24646 L 507.26121,439.39989 C 508.70916,439.29284 510.07261,438.97734 513.17698,438.97734 z M 588.53278,439.11819 C 605.08571,439.13509 618.97929,445.90166 618.95681,473.20436 C 618.93991,489.1319 609.91411,503.78614 592.33578,503.76924 C 584.89317,503.7636 581.48451,502.83961 581.49018,495.59983 L 581.63103,439.54074 C 583.90721,439.33791 586.15521,439.11823 588.53278,439.11819 z M 207.38738,446.58334 L 207.66909,446.58334 L 217.10617,475.88055 L 197.80946,475.88055 L 207.38738,446.58334 z M 440.77908,446.86504 L 441.06078,446.86504 L 450.49787,476.0214 L 431.20114,476.0214 L 440.77908,446.86504 z M 90.198559,555.4619 C 82.09112,555.45064 75.420371,560.79174 75.409104,568.27943 C 75.409104,575.66571 81.060094,581.71671 84.282777,585.88593 C 75.211911,591.64959 67.386176,598.3485 67.380542,610.25331 C 67.369274,622.06234 77.127492,631.82056 91.184522,631.80366 C 102.1259,631.77549 109.25865,625.43153 112.59402,620.95806 L 119.07321,629.12748 L 124.70729,629.12748 L 114.9885,617.43676 C 117.89569,612.52385 119.78873,604.63614 119.21406,598.70345 L 115.12935,598.70345 C 115.68713,602.98535 114.43636,610.1181 112.17146,614.19716 L 89.776004,586.73104 C 96.463654,582.54491 104.55982,577.92498 104.56546,568.84284 C 104.55982,562.34675 99.201811,555.45064 90.198559,555.4619 z M 231.89563,556.02531 C 210.38472,556.00278 193.74728,572.68528 193.72474,594.19619 C 193.70784,616.42826 210.39034,631.35858 232.31818,631.38111 C 254.34179,631.40364 271.44684,615.58879 271.47503,591.80171 C 271.49193,569.77246 253.91923,556.04226 231.89563,556.02531 z M 318.09703,556.16616 C 296.58612,556.14363 279.94868,572.68528 279.92614,594.19619 C 279.90924,616.4339 296.59173,631.3642 318.51958,631.38111 C 340.54319,631.40364 357.64827,615.58879 357.67643,591.80171 C 357.69333,569.77246 340.12066,556.1887 318.09703,556.16616 z M 483.31637,556.30701 C 469.97487,556.29575 460.51526,564.27355 460.49836,577.71651 C 460.48146,602.64168 490.93928,596.87801 490.92238,615.18314 C 490.91674,622.52434 485.14182,627.02033 478.10484,627.0147 C 468.28466,627.00343 463.42244,619.32981 462.18858,610.53501 L 459.23068,611.23928 C 459.74339,616.51278 460.41384,621.60035 460.92091,626.87385 C 465.98594,629.46553 471.60876,631.51638 477.40059,631.52196 C 490.63504,631.53323 502.46097,624.09629 502.47223,609.83076 C 502.49477,585.00701 471.46791,590.23539 471.48481,573.0684 C 471.49607,564.89335 475.99207,559.95794 484.16148,559.96916 C 491.29986,559.9748 495.70008,566.48216 496.41561,573.20925 L 499.23264,572.64584 C 498.61289,567.68221 498.24104,562.71296 498.24668,557.85639 C 495.04089,557.43946 486.21228,556.30701 483.31637,556.30701 z M 134.28522,557.57469 L 134.28522,560.67343 L 135.55289,560.67343 C 140.51651,560.67343 142.46028,561.91288 142.45463,568.84284 L 142.45463,618.28188 C 142.44337,626.5527 139.07981,626.59778 135.97544,626.59214 L 134.28522,626.59214 L 134.28522,629.69089 C 140.1841,629.69651 145.78437,629.26274 151.46916,629.26833 C 156.74829,629.27396 161.83024,629.6853 167.10373,629.69089 L 167.10373,626.59214 L 165.55436,626.59214 C 160.28086,626.5865 155.68908,626.37809 155.69472,618.00018 L 155.69472,561.23684 L 158.79346,561.23684 C 169.44751,561.2481 174.29282,567.78926 174.28718,577.71651 C 174.27591,587.95364 170.55177,595.47513 162.17391,595.46386 L 159.92028,595.46386 L 159.92028,598.5626 C 162.29786,598.56824 165.02476,598.48373 168.23054,598.2809 C 179.61138,597.15409 188.21462,589.39591 188.23152,577.29395 C 188.24279,562.19463 177.92679,557.586 163.86413,557.57469 C 159.21038,557.56905 154.16789,558.00288 148.79297,557.99724 C 143.51948,557.9916 138.00934,557.58031 134.28522,557.57469 z M 364.29647,557.71554 L 364.29647,560.81428 L 366.26839,560.81428 C 369.47418,560.81428 373.59833,561.15233 373.59269,568.70199 L 373.45184,621.23976 C 373.44621,625.0653 369.95308,626.87385 366.12754,626.87385 L 364.29647,626.87385 L 364.29647,629.97259 C 369.46292,629.97823 374.26316,629.54435 379.22677,629.55004 C 385.12566,629.55566 391.22173,629.96136 397.11497,629.97259 L 397.11497,626.87385 L 395.14304,626.87385 C 390.38224,626.87385 386.68629,626.52454 386.69193,618.56358 L 386.69193,596.44983 L 393.59367,596.44983 C 400.30386,608.349 407.04786,619.51574 415.00317,629.97259 C 418.21459,629.97259 421.51617,629.55004 424.72196,629.55004 C 428.13621,629.55566 431.45468,629.96695 434.86329,629.97259 L 434.86329,626.87385 C 429.79826,626.24846 427.75309,625.02024 424.86281,620.67636 L 407.25632,594.19619 C 415.43136,590.99604 421.61758,585.33379 421.62322,576.02629 C 421.64012,561.34388 410.00011,557.72685 396.97412,557.71554 C 391.49217,557.7099 386.56234,558.14373 380.35359,558.13809 C 374.04342,558.13245 367.60367,557.72116 364.29647,557.71554 z M 439.22971,557.85639 C 435.80473,558.40839 433.17307,560.8685 433.17307,564.75813 C 433.16744,568.58368 435.37037,569.7049 437.53948,570.53306 C 439.70861,571.36128 442.04674,571.94158 442.04674,575.04033 C 442.04674,580.111 435.88871,583.09143 431.34199,583.914 L 432.75052,587.01274 C 441.43827,584.64079 449.78797,578.38696 449.79361,568.56114 C 449.80487,562.97776 446.77937,557.86203 440.77908,557.85639 C 440.26214,557.85566 439.71897,557.77751 439.22971,557.85639 z M 90.057707,559.2649 C 96.238291,559.28744 100.3399,563.76649 100.3399,568.84284 C 100.28919,576.52209 91.877505,581.04061 87.522372,583.77315 C 85.403959,581.16456 79.786791,574.75299 79.775514,568.70199 C 79.775514,563.09608 84.198256,559.2142 90.057707,559.2649 z M 231.61392,560.67343 C 248.78096,560.69033 256.97854,578.96164 256.96728,594.05534 C 256.95601,609.1603 253.36712,626.7499 233.30414,626.73299 C 216.54839,626.71609 208.07474,609.04763 208.09164,590.53404 C 208.10292,576.67421 213.51726,560.66215 231.61392,560.67343 z M 317.95617,560.67343 C 335.12321,560.68469 343.17993,578.95601 343.16867,594.05534 C 343.15741,609.15466 339.70936,626.89075 319.64639,626.87385 C 302.89064,626.85694 294.41698,609.18848 294.43389,590.67489 C 294.44517,576.82069 299.85953,560.65648 317.95617,560.67343 z M 392.74857,561.51854 C 401.95464,561.5298 407.83099,567.38925 407.81972,576.5897 C 407.81409,588.79874 402.10113,592.65245 391.76259,592.64681 L 386.69193,592.64681 L 386.83278,561.94109 C 388.28074,561.83968 389.64418,561.51849 392.74857,561.51854 z M 86.67726,588.98466 L 110.05868,617.85933 C 107.59096,621.45386 101.35966,628.01193 91.325375,628.00066 C 80.772746,628.01193 71.577935,621.11019 71.606101,610.39416 C 71.611735,598.47245 81.702369,591.95383 86.67726,588.98466 z" id="path2476" style="fill:#ffffff;fill-opacity:1;fill-rule:nonzero;stroke:none"/>
      <path d="M 66.53543,408.27161 L 66.53543,412.07461 L 272.60184,412.07461 L 272.60184,408.27161 L 66.53543,408.27161 z M 66.53543,532.22133 L 66.53543,536.02434 L 272.60184,536.02434 L 272.60184,532.22133 L 66.53543,532.22133 z M 66.53543,652.64975 L 66.53543,656.45275 L 272.60184,656.45275 L 272.60184,652.64975 L 66.53543,652.64975 z" id="path2534" style="fill:#dc241f;fill-opacity:1;fill-rule:nonzero;stroke:none"/>
    </g>
  </g>
</svg>